<svg width="24" height="24" viewBox="0 0 24 24" fill="none" xmlns="http://www.w3.org/2000/svg">
<path d="M3.99909 13.9937C3.80993 13.9943 3.62447 13.9413 3.46426 13.8407C3.30405 13.7402 3.17566 13.5962 3.09401 13.4256C3.01236 13.255 2.9808 13.0647 3.003 12.8768C3.0252 12.689 3.10024 12.5113 3.21941 12.3644L13.1153 2.16863C13.1895 2.08294 13.2907 2.02504 13.4022 2.00443C13.5136 1.98381 13.6288 2.00171 13.7288 2.05518C13.8287 2.10865 13.9075 2.19451 13.9523 2.29868C13.997 2.40285 14.005 2.51913 13.9749 2.62843L12.0557 8.64593C11.9991 8.79739 11.9801 8.96032 12.0003 9.12074C12.0206 9.28116 12.0794 9.43428 12.1718 9.56697C12.2642 9.69966 12.3874 9.80796 12.5308 9.88257C12.6742 9.95719 12.8337 9.99589 12.9953 9.99537H19.9924C20.1816 9.99472 20.367 10.0478 20.5272 10.1483C20.6875 10.2489 20.8158 10.3928 20.8975 10.5635C20.9791 10.7341 21.0107 10.9244 20.9885 11.1122C20.9663 11.3001 20.8913 11.4778 20.7721 11.6247L10.8762 21.8204C10.802 21.9061 10.7008 21.964 10.5894 21.9846C10.4779 22.0053 10.3627 21.9874 10.2627 21.9339C10.1628 21.8804 10.084 21.7946 10.0392 21.6904C9.9945 21.5862 9.98651 21.4699 10.0166 21.3606L11.9358 15.3431C11.9924 15.1917 12.0114 15.0287 11.9912 14.8683C11.971 14.7079 11.9121 14.5548 11.8197 14.4221C11.7273 14.2894 11.6041 14.1811 11.4607 14.1065C11.3173 14.0319 11.1579 13.9932 10.9962 13.9937H3.99909Z" stroke="#FFDF00" stroke-width="1.99917" stroke-linecap="round" stroke-linejoin="round"/>
</svg>
