<svg width="18" height="18" viewBox="0 0 18 18" fill="none" xmlns="http://www.w3.org/2000/svg">
<g clip-path="url(#clip0_95_959)">
<path d="M16.4848 12.6786V14.9266C16.4856 15.1353 16.4429 15.3418 16.3593 15.5331C16.2757 15.7243 16.153 15.8959 15.9993 16.037C15.8455 16.1781 15.6639 16.2855 15.4663 16.3523C15.2686 16.4192 15.0591 16.444 14.8512 16.4252C12.5454 16.1747 10.3305 15.3868 8.38453 14.1248C6.57402 12.9743 5.03903 11.4393 3.88855 9.62883C2.62217 7.67398 1.83408 5.44832 1.58811 3.13215C1.56939 2.92493 1.59401 2.71609 1.66042 2.51891C1.72683 2.32174 1.83357 2.14055 1.97384 1.98689C2.11411 1.83322 2.28484 1.71045 2.47516 1.62638C2.66548 1.54232 2.87122 1.4988 3.07928 1.49861H5.32727C5.69092 1.49503 6.04347 1.6238 6.3192 1.86093C6.59493 2.09806 6.77503 2.42736 6.82592 2.78745C6.92081 3.50686 7.09677 4.21322 7.35045 4.89307C7.45127 5.16127 7.47309 5.45275 7.41333 5.73298C7.35356 6.0132 7.21472 6.27042 7.01326 6.47415L6.06161 7.4258C7.12832 9.30178 8.6816 10.8551 10.5576 11.9218L11.5092 10.9701C11.713 10.7687 11.9702 10.6298 12.2504 10.5701C12.5306 10.5103 12.8221 10.5321 13.0903 10.6329C13.7702 10.8866 14.4765 11.0626 15.1959 11.1575C15.5599 11.2088 15.8924 11.3922 16.13 11.6726C16.3676 11.9531 16.4939 12.3111 16.4848 12.6786Z" stroke="white" stroke-width="1.49866" stroke-linecap="round" stroke-linejoin="round"/>
</g>
<defs>
<clipPath id="clip0_95_959">
<rect width="17.9839" height="17.9839" fill="white"/>
</clipPath>
</defs>
</svg>
